<svg width="20" height="21" viewBox="0 0 20 21" fill="none" xmlns="http://www.w3.org/2000/svg">
<g clip-path="url(#clip0_13903_45945)">
<path fill-rule="evenodd" clip-rule="evenodd" d="M9.99646 0.916626C7.62248 0.917858 5.32635 1.75867 3.51863 3.28873C1.71091 4.81878 0.509489 6.9383 0.12919 9.26829C-0.251109 11.5983 0.214508 13.9868 1.4428 16.0068C2.67108 18.0267 4.58194 19.5464 6.83368 20.2941C7.33045 20.3863 7.51757 20.0784 7.51757 19.8166C7.51757 19.5548 7.50763 18.7958 7.50432 17.966C4.7224 18.5669 4.13456 16.792 4.13456 16.792C3.68084 15.6395 3.0251 15.3365 3.0251 15.3365C2.11767 14.7208 3.093 14.7323 3.093 14.7323C4.09813 14.8031 4.62637 15.758 4.62637 15.758C5.51724 17.2777 6.96615 16.8381 7.53578 16.5813C7.6252 15.9375 7.88518 15.4995 8.17165 15.2509C5.94943 15.0007 3.6146 14.1478 3.6146 10.3378C3.60083 9.34972 3.96959 8.39417 4.64458 7.66886C4.54191 7.4186 4.19914 6.40765 4.74227 5.03449C4.74227 5.03449 5.58182 4.76776 7.49273 6.05366C9.13179 5.60798 10.8611 5.60798 12.5002 6.05366C14.4094 4.76776 15.2473 5.03449 15.2473 5.03449C15.7921 6.40436 15.4493 7.4153 15.3467 7.66886C16.0238 8.39429 16.3933 9.3515 16.3783 10.3411C16.3783 14.1593 14.0385 15.0007 11.813 15.246C12.1707 15.5555 12.4902 16.1598 12.4902 17.0884C12.4902 18.4188 12.4787 19.489 12.4787 19.8166C12.4787 20.0817 12.6591 20.3912 13.1659 20.2941C15.4179 19.5463 17.3289 18.0264 18.5572 16.0061C19.7854 13.9858 20.2508 11.5969 19.8701 9.26667C19.4893 6.93646 18.2873 4.81692 16.479 3.28713C14.6707 1.75734 12.374 0.917077 9.99976 0.916626H9.99646Z" fill="#9CA3AF"/>
<path d="M3.78436 15.1933C3.76284 15.2427 3.68335 15.2575 3.61877 15.2229C3.55419 15.1883 3.50618 15.1241 3.52936 15.0731C3.55254 15.022 3.63037 15.0089 3.69495 15.0434C3.75953 15.078 3.8092 15.1439 3.78436 15.1933Z" fill="#191717"/>
<path d="M4.19334 15.6428C4.15905 15.66 4.11982 15.6648 4.08236 15.6563C4.0449 15.6479 4.01155 15.6268 3.98801 15.5967C3.92343 15.5275 3.91018 15.432 3.95985 15.3892C4.00953 15.3464 4.09896 15.3662 4.16354 15.4353C4.22812 15.5045 4.24302 15.6 4.19334 15.6428Z" fill="#191717"/>
<path d="M4.58673 16.2142C4.52546 16.257 4.42113 16.2142 4.36318 16.1286C4.34715 16.1132 4.33441 16.0948 4.3257 16.0744C4.31699 16.0541 4.3125 16.0322 4.3125 16.01C4.3125 15.9879 4.31699 15.966 4.3257 15.9456C4.33441 15.9253 4.34715 15.9068 4.36318 15.8915C4.42444 15.8503 4.52877 15.8915 4.58673 15.9755C4.64468 16.0594 4.64634 16.1714 4.58673 16.2142V16.2142Z" fill="#191717"/>
<path d="M5.12559 16.7674C5.07094 16.8283 4.96 16.8118 4.86893 16.7295C4.77785 16.6472 4.75632 16.5352 4.81096 16.4759C4.86561 16.4167 4.97655 16.4331 5.07094 16.5138C5.16533 16.5945 5.18354 16.7081 5.12559 16.7674V16.7674Z" fill="#191717"/>
<path d="M5.87246 17.0901C5.84762 17.1675 5.73502 17.202 5.62242 17.1691C5.50982 17.1362 5.4353 17.044 5.45683 16.9649C5.47836 16.8859 5.59262 16.8497 5.70687 16.8859C5.82113 16.9221 5.89399 17.0094 5.87246 17.0901Z" fill="#191717"/>
<path d="M6.68669 17.146C6.68669 17.2267 6.59396 17.2959 6.47474 17.2975C6.35551 17.2991 6.25781 17.2333 6.25781 17.1526C6.25781 17.0719 6.35054 17.0028 6.46976 17.0011C6.58899 16.9995 6.68669 17.0637 6.68669 17.146Z" fill="#191717"/>
<path d="M7.45068 17.0193C7.46559 17.1 7.38279 17.184 7.26357 17.2037C7.14434 17.2235 7.04002 17.1757 7.02512 17.0967C7.01021 17.0177 7.09632 16.932 7.21223 16.9106C7.32815 16.8892 7.43578 16.9386 7.45068 17.0193Z" fill="#191717"/>
</g>
<defs>
<clipPath id="clip0_13903_45945">
<rect width="20" height="20" fill="white" transform="translate(0 0.5)"/>
</clipPath>
</defs>
</svg>
