<svg width="20" height="21" viewBox="0 0 20 21" fill="none" xmlns="http://www.w3.org/2000/svg">
<g clip-path="url(#clip0_13903_45893)">
<path d="M19.8081 10.7303C19.8081 10.0506 19.753 9.36711 19.6354 8.69836H10.2031V12.5492H15.6046C15.3804 13.7911 14.6602 14.8898 13.6057 15.5879V18.0866H16.8282C18.7205 16.3449 19.8081 13.7728 19.8081 10.7303Z" fill="#9CA3AF"/>
<path d="M10.2019 20.5006C12.8989 20.5006 15.1734 19.6151 16.8306 18.0865L13.6081 15.5879C12.7115 16.1979 11.5541 16.5433 10.2056 16.5433C7.59669 16.5433 5.38468 14.7832 4.591 12.4169H1.26562V14.9927C2.96322 18.3695 6.42087 20.5006 10.2019 20.5006V20.5006Z" fill="#34A853"/>
<path d="M4.58857 12.4169C4.16969 11.1749 4.16969 9.83008 4.58857 8.58811V6.01233H1.26688C-0.151459 8.83798 -0.151459 12.167 1.26688 14.9927L4.58857 12.4169V12.4169Z" fill="#FBBC04"/>
<path d="M10.2019 4.45805C11.6276 4.436 13.0055 4.97247 14.038 5.95722L16.893 3.10218C15.0852 1.40459 12.6858 0.471278 10.2019 0.500674C6.42087 0.500674 2.96322 2.63185 1.26562 6.01234L4.58732 8.58813C5.37733 6.21811 7.59302 4.45805 10.2019 4.45805V4.45805Z" fill="#EA4335"/>
</g>
<defs>
<clipPath id="clip0_13903_45893">
<rect width="20" height="20" fill="white" transform="translate(0 0.5)"/>
</clipPath>
</defs>
</svg>
